<?xml version="1.0" encoding="utf-8"?>
<!-- Generator: Adobe Illustrator 19.0.1, SVG Export Plug-In . SVG Version: 6.00 Build 0)  -->
<svg version="1.1" id="Layer_1" xmlns="http://www.w3.org/2000/svg" xmlns:xlink="http://www.w3.org/1999/xlink" x="0px" y="0px"
	 viewBox="0 0 498 308" style="enable-background:new 0 0 498 308;" xml:space="preserve">
<style type="text/css">
	.st0{fill:none;stroke:#FFFFFF;stroke-width:2;stroke-miterlimit:10;}
</style>
<g>
	<path class="st0" d="M23.3,41.4v40.7l68-44.7c0.8-0.6,2.1-0.8,3.8-0.8c1.3,0,2.4,0.1,3.2,0.4c0.9,0.3,1.3,0.6,1.3,1v0.2l-8.2,65.6
		l154.3-91.2c1.9-1.2,4.9-1.8,8.9-1.8c3.2,0,5.8,0.4,7.7,1.1c1.9,0.8,2.9,1.6,2.9,2.5c0,0.7-0.5,1.3-1.4,1.8L90.6,109
		c-0.8,0.3-1.8,0.5-2.9,0.5c-2.1,0-3.1-0.3-3.1-0.9v-0.3L90.2,45L26.7,87.1c-0.8,0.4-1.8,0.7-2.9,0.7c-1.8,0-2.9-0.3-3.4-1L8.2,41.9
		v-0.3c0-0.7,0.6-1.3,1.9-1.8c1.3-0.5,3-0.8,5.3-0.8c1.9,0,3.6,0.2,5.2,0.7C22.1,40.1,23,40.7,23.3,41.4z"/>
	<path class="st0" d="M179.8,80.2c-0.2,0.4-0.3,0.9-0.5,1.2c-0.2,0.4-0.2,0.7-0.2,1.1c0,0.3,0.1,0.6,0.2,0.9
		c0.2,0.3,0.3,0.5,0.5,0.6l0.5,0.6c0.2,0,0.2,0,0.2,0.1h0.7c1.1,0,2.4-0.1,3.7-0.4c1.4-0.3,2.7-0.6,4.1-1c1.4-0.4,2.7-0.8,4-1.3
		c1.3-0.5,2.4-0.9,3.4-1.2l4.8-2c0.8-0.3,1.6-0.7,2.3-1c0.7-0.4,1.5-0.7,2.3-1l4.3-2.2c1.3-0.7,2.6-1.4,4-2.2c1.4-0.7,2.7-1.5,4-2.3
		l3.6-2.3l3.1-2l0.5-0.3c0.3-0.3,0.9-0.6,1.8-0.8c0.9-0.2,1.8-0.3,2.8-0.3c1.6,0,2.9,0.2,3.8,0.5c1,0.4,1.4,0.8,1.4,1.2
		c0,0.2-0.2,0.5-0.5,0.8l-2.2,1.3l-4.3,2.3c-2.7,1.5-5.2,2.8-7.3,4.1c-2.2,1.3-4.8,2.6-7.8,3.8l-4.6,2.2c-2.2,1.1-4.9,2.3-7.9,3.5
		c-3,1.2-6.1,2.1-9.1,2.6l-1.7,0.5l-4.6,0.7c-1.9,0.2-3.4,0.3-4.3,0.3h-1.2c-2.2,0-4.3-0.3-6.1-1c-1.8-0.6-3.1-1.3-3.7-2l-0.7-0.9
		c-0.3-0.6-0.6-1.2-0.8-1.8c-0.2-0.6-0.4-1.3-0.4-1.9c0-0.4,0-0.8,0.1-1.2c0.1-0.4,0.1-0.8,0.1-1.2l0.5-1.3c0.8-2.3,2-4.7,3.6-7.1
		c1.6-2.4,4.2-4.6,7.7-6.7l2.6-1.3c1.3-0.7,3.2-1.5,5.6-2.3c2.5-0.8,5.5-1.2,9-1.2h1.7c0.6,0,2.1,0.1,4.4,0.4
		c2.3,0.3,4.1,0.8,5.4,1.6l1.7,1.2l0.7,1.3c0.2,0.3,0.2,0.6,0.2,1c0,1.1-0.6,2.1-1.7,3.3c-1.1,1.1-1.7,1.8-1.7,2.1l-1,0.7l-1.4,1.3
		l-1.9,1.3c-1.1,0.7-2.2,1.4-3.4,2.1c-1.1,0.7-2.6,1.3-4.3,1.8l-3.8,1.1l-2.4,0.5c-0.6,0.1-1.2,0.1-1.7,0.2c-0.5,0.1-1,0.1-1.7,0.1
		h-2.2c-0.3,0-0.9,0-1.7-0.1c-0.8-0.1-1.2-0.2-1.2-0.2l-0.7,1.1L179.8,80.2z M185.4,74.7c0.2,0.1,0.2,0.2,0.2,0.3
		c0.8-0.3,2-0.8,3.6-1.5c1.6-0.8,2.4-1.7,2.4-2.7l0.2-0.3l0.7-1.9v-0.3l-0.5,0.3l-3.1,2.2l-2.9,2.3l-1,0.8c0,0.2,0,0.3,0.1,0.5
		C185.3,74.4,185.4,74.6,185.4,74.7z"/>
	<path class="st0" d="M226,66.1v-0.2l0.5-0.5l0.7-0.7c3.2-2.7,6.9-5.4,10.9-7.9c4.1-2.5,8.3-5,12.6-7.4l2.2-2.3l5.5-5.3l5.3-4
		c0.5-0.5,1.2-1,2.2-1.4l1.2-0.8L269,35c0.3-0.1,0.7-0.3,1.1-0.5c0.4-0.2,0.8-0.3,1.1-0.3l1.9-0.5l2.2-0.3c0.3,0,0.7,0,1.1-0.1
		c0.4-0.1,1-0.1,1.8-0.1l4.1,0.2c2.7,0.3,4.6,0.8,5.8,1.5c1.1,0.7,1.7,1.2,1.7,1.5l0.5,0.6c0,0.3-0.1,0.4-0.2,0.5l-0.2,0.8
		c-0.3,0.5-0.6,0.9-1,1.2l-0.7,0.8l-4.3,2.8l-2.2,1.2c-1.3,1.1-3,2-5.3,3c-2.2,0.9-4.2,1.9-6,2.8l-1.9,1l-3.6,3.3
		c-1.9,1.7-3.7,3.4-5.3,5.1c-1.6,1.7-3.3,3.4-5,5.1l-10.6,10.3c-0.8,0.8-1.6,1.7-2.5,2.5c-0.9,0.8-1.8,1.7-2.8,2.5l0.7-0.3
		c6.1-2.2,11.9-4.5,17.3-6.7c5.4-2.3,10.4-4.7,14.9-7.3c0.8-0.4,2-0.7,3.6-0.7c1.1,0,2,0.2,2.6,0.5c0.6,0.3,1,0.6,1,0.9
		c0,0.3-0.4,0.8-1.2,1.3c-0.8,0.5-1.8,1-2.9,1.6c-1.1,0.6-2.3,1.1-3.5,1.6c-1.2,0.5-2.2,1-3,1.4c-4.5,2.1-9.2,4.1-14.2,6
		c-5,1.9-10.1,3.7-15.4,5.6l-5,1.6l-1.7,0.6c-0.8,0.2-1.6,0.3-2.4,0.3c-1.1,0-2.1-0.1-2.9-0.3c-0.8-0.2-1.2-0.6-1.2-1
		c0-0.9,0.4-1.9,1.1-2.9c0.7-1,1.4-1.9,2-2.8c1.6-2.4,3.2-4.8,4.7-7.1c1.5-2.4,3.2-4.8,4.9-7.1c-1.3,0.6-2.6,1.2-4,2
		c-1.4,0.8-2.8,1.2-4.4,1.2c-1.1,0-2-0.1-2.8-0.4c-0.7-0.3-1.1-0.5-1.1-0.9C225.7,66.3,225.8,66.2,226,66.1z"/>
	<path class="st0" d="M293.1,65h-0.2H293.1c-0.2-0.1-0.2-0.1-0.2-0.1c0,0-0.1,0-0.2,0c-1.4,0-2.8,0.2-4.2,0.5
		c-1.4,0.4-2.6,0.8-3.8,1.2c-1.2,0.4-2.4,0.9-3.5,1.4c-1.1,0.5-2,0.9-2.6,1.1c-1.9,1.3-3.6,2.5-5.2,3.4c-1.5,0.9-3.2,2.1-4.9,3.6
		l-1,1.3c-0.5,0.6-0.7,1.3-0.7,1.9c0,0.4,0.1,0.8,0.2,1c0.2,0.2,0.4,0.3,0.6,0.4c0.2,0.1,0.4,0.1,0.6,0l0.5,0.1h0.5
		c1.3-0.2,2.8-0.4,4.7-0.8c1.8-0.4,4-0.9,6.4-1.6l9.1-3.2c2.1-0.7,4-1.5,5.6-2.3c1.7-0.8,3.5-1.6,5.4-2.4l2.6-1.3l2.4-1.3l3.8-1.9
		l1-0.7c1-0.5,2.2-0.8,3.8-0.8c1.3,0,2.4,0.2,3.2,0.5c0.9,0.3,1.3,0.7,1.3,1.2c0,0.3-0.2,0.6-0.5,0.8l-1.7,0.8l-4.1,1.9
		c-1,0.3-1.9,0.8-2.9,1.3l-2.6,1.2c-1.9,0.8-3.8,1.7-5.6,2.5c-1.8,0.8-3.8,1.6-5.9,2.4l-6.3,2.3c-1.3,0.4-2.7,0.9-4.2,1.5
		c-1.5,0.5-3.1,1-4.8,1.5c-1.7,0.4-3.4,0.8-5.2,1.1c-1.8,0.3-3.4,0.5-5,0.5h-2.9c-3-0.3-5.5-0.8-7.5-1.5c-1.9-0.7-2.9-2-2.9-3.9
		s0.8-3.8,2.4-5.6c1.6-1.8,3.5-3.5,5.6-5.1c2.2-1.5,4.4-2.9,6.6-4c2.2-1.1,4.1-2,5.5-2.5c1.8-0.6,3.7-1.1,5.8-1.6
		c2.1-0.4,4.8-0.9,8.2-1.3l4.3-0.1c2.6-0.1,4.8,0.3,6.7,1c1.9,0.7,2.9,1.5,2.9,2.3c0,0.9-0.9,1.7-2.8,2.4c-1.8,0.6-4.1,1-6.9,1
		C294.2,65.1,293.5,65,293.1,65z"/>
	<path class="st0" d="M334.2,73.3l0.5,0.3c0.2,0,0.3,0,0.5,0c0.2,0,0.3,0,0.5,0c0.6,0,1.5-0.1,2.6-0.3l2.9-0.7
		c1.1-0.4,2.4-0.8,3.7-1.3c1.4-0.5,2.7-1.1,4-1.9l1.2-0.6c0.3-0.4,0.8-0.7,1.3-0.9c0.6-0.2,1.1-0.6,1.6-1.1l1.9-1.3
		c0.8-0.7,2.3-1.1,4.6-1.1c1.4,0,2.6,0.2,3.6,0.6c1,0.4,1.4,0.8,1.4,1.3c0,0.2-0.1,0.4-0.2,0.5l-0.7,0.3c-0.3,0.2-0.7,0.4-1.1,0.7
		c-0.4,0.2-0.8,0.4-1.3,0.7l-3.8,2l-3.8,1.9c-1.8,0.8-3.8,1.7-6.3,2.5l-1.9,0.6c-0.3,0.1-0.6,0.2-1,0.3c-0.3,0.1-0.7,0.2-1.2,0.3
		l-2.4,0.5c-0.8,0.1-1.8,0.2-2.9,0.3c-1.1,0.1-2.4,0.2-3.8,0.2c-0.8-0.1-1.7-0.1-2.8-0.2c-1-0.1-1.6-0.2-1.6-0.2
		c-1.3,0.9-2.6,1.7-4.1,2.3c-1.4,0.7-3,1.4-4.8,2.2l-3.4,1.1c-1,0.3-2.2,0.6-3.7,0.8c-1.5,0.3-3.2,0.4-4.9,0.4h-1
		c-2.6,0-5.1-0.4-7.6-1.1c-2.5-0.7-3.7-1.9-3.7-3.4c0-1,0.2-2,0.7-3l1.4-2.2l0.5-0.7l2.6-2.7l3.4-2.7c0.8-0.6,1.7-1.3,2.8-2.1
		c1-0.8,2.2-1.4,3.5-1.8l1.7-0.7c0.2-0.1,0.4-0.2,0.6-0.4c0.2-0.1,0.5-0.3,0.8-0.4l2.2-0.6c1.3-0.3,2.6-0.6,3.8-0.8
		c1.3-0.3,3.3-0.4,6-0.4c0.6,0,1.1,0,1.4,0.1h1.2c2.4,0.1,4.4,0.5,5.9,1.1c1.5,0.6,2.3,1.4,2.3,2.1v0.3l-0.2,0.4
		c0.3,0.3,0.5,0.7,0.6,1c0.1,0.3,0.1,0.6,0.1,0.9v0.9c0,0.3,0,0.6-0.1,0.8c-0.1,0.3-0.2,0.6-0.4,0.8l-1,1.5
		c-0.3,0.4-0.7,0.9-1.1,1.3c-0.4,0.4-0.8,0.8-1.3,1.3H334.2z M315.9,70c-1.4,0.7-2.7,1.4-3.8,2.1c-1.1,0.7-2.2,1.5-3.1,2.3l-1,1.2
		c-0.6,0.8-1.2,1.4-1.6,2c-0.4,0.5-0.5,1-0.4,1.5c0,0.3,0.1,0.6,0.2,0.8c0.2,0.3,0.3,0.4,0.5,0.4l1.7,0.1c0.2,0,1.1-0.2,2.9-0.6
		l2.2-0.8c0.3-0.2,0.6-0.4,1-0.4l2.6-1.5c0.8-0.6,1.6-1.3,2.4-1.9c0.8-0.7,1.4-1.3,1.7-2c-0.8-0.4-1.4-1-1.7-1.6
		c-0.3-0.6-0.5-1.2-0.5-1.7l-0.5-1.1c-0.5,0.2-1,0.4-1.4,0.6C316.6,69.5,316.2,69.8,315.9,70z"/>
	<path class="st0" d="M369,63.3l4.6-1.8l1.7-0.3c0.3,0,1-0.1,1.9-0.3c0.5-0.1,0.9-0.2,1.2-0.3l0.7-0.1h0.7l0.7-0.1h2.4l4.1,0.5
		l2.9,0.9c-0.2,0.1-0.2,0.1,0,0.1c0.2,0,0.2,0,0.2,0.1l1,0.5l0.2,0.2v0.1c0.6,0.4,1,0.9,1,1.4v0.6c0,1.2-0.4,2.1-1.2,2.9
		c-0.8,0.8-1.6,1.5-2.4,2.1l2.2-0.8c0.5-0.3,1.1-0.5,1.9-0.7l4.1-0.9l3.8-0.4h2.9c1.3,0,2.4,0.1,3.5,0.3c1,0.2,2,0.5,2.8,0.7
		c0.8,0.3,1.4,0.5,1.8,0.7c0.4,0.2,0.5,0.3,0.4,0.3l0.7,0.6c0.5,0.7,0.7,1.2,0.7,1.6c0,0.3-0.1,0.7-0.2,1c-0.2,0.4-0.4,0.7-0.7,0.9
		v0.1c0.8-0.5,1.8-1,2.9-1.5c1.1-0.5,2.1-1,2.9-1.5l3.8-2.3c1.1-0.7,2.2-1.4,3.2-2.2c1-0.8,2.6-1.2,4.7-1.2c1.4,0,2.6,0.2,3.5,0.5
		c0.9,0.3,1.3,0.7,1.3,1.2c0,0.3-0.1,0.6-0.2,0.7l-0.7,0.3l-2.4,1.1l-2.4,1.2c-0.8,0.3-1.6,0.7-2.3,1c-0.7,0.4-1.5,0.7-2.3,1.1
		l-9.1,4.6c-1.1,0.6-2.2,1.2-3.4,1.8c-1.1,0.6-2.4,1.1-3.8,1.5l-1.2,0.7l-2.2,0.8l-0.7,0.2c-0.2,0.1-0.3,0.1-0.5,0.1l-0.7,0.2
		c-0.2,0-0.3,0-0.5,0c-0.2,0-0.4,0-0.7,0h-1.4c-0.3,0-0.8,0-1.3-0.1c-0.6-0.1-0.8-0.2-0.8-0.3l-1.2-0.4c-0.5-0.2-0.8-0.4-0.8-0.6
		c-0.1-0.2-0.1-0.4-0.1-0.4v-0.8c0-0.2,0.1-0.4,0.2-0.4l0.5-2.2v-1.6l-0.7,0.1c-3.5,0.9-7.1,2-10.6,3.1c-3.5,1.1-6.6,2.2-9.1,3.5
		l-1.2,0.5c-0.3,0.2-0.7,0.4-1.2,0.7c-0.5,0.2-1,0.3-1.7,0.3c-1.8,0-2.6-0.3-2.6-0.8c0-0.3,0.2-0.6,0.5-0.8c0.3-0.3,0.6-0.6,0.7-0.8
		l1-1.3l1.4-2.8l1.2-2.8c0.3-0.4,0.5-0.9,0.5-1.4c0-0.5,0.1-0.9,0.2-1.4v-0.4l-3.8,1.5c-4.2,1.8-8.5,3.6-12.9,5.4
		c-4.4,1.8-8.1,3.8-10.9,5.9l-0.5,0.2l-3.1,2.1c0,0.3-0.4,0.6-1.3,0.8c-0.9,0.2-1.7,0.3-2.5,0.3c-1.3,0-2.2-0.1-2.9-0.4
		c-0.6-0.3-1-0.6-1-0.9c0-0.2,0.1-0.3,0.2-0.4l16.1-19.5c0.6-0.7,1.8-1.2,3.5-1.6c1.7-0.4,3.6-0.6,5.7-0.6c2.4,0,4.6,0.3,6.7,0.8
		L369,63.3z"/>
	<path class="st0" d="M424.8,80.2c-0.2,0.4-0.3,0.9-0.5,1.2c-0.2,0.4-0.2,0.7-0.2,1.1c0,0.3,0.1,0.6,0.2,0.9
		c0.2,0.3,0.3,0.5,0.5,0.6l0.5,0.6c0.2,0,0.2,0,0.2,0.1h0.7c1.1,0,2.4-0.1,3.7-0.4c1.4-0.3,2.7-0.6,4.1-1c1.4-0.4,2.7-0.8,4-1.3
		c1.3-0.5,2.4-0.9,3.4-1.2l4.8-2c0.8-0.3,1.6-0.7,2.3-1c0.7-0.4,1.5-0.7,2.3-1l4.3-2.2c1.3-0.7,2.6-1.4,4-2.2c1.4-0.7,2.7-1.5,4-2.3
		l3.6-2.3l3.1-2l0.5-0.3c0.3-0.3,0.9-0.6,1.8-0.8c0.9-0.2,1.8-0.3,2.8-0.3c1.6,0,2.9,0.2,3.8,0.5c1,0.4,1.4,0.8,1.4,1.2
		c0,0.2-0.2,0.5-0.5,0.8l-2.2,1.3l-4.3,2.3c-2.7,1.5-5.2,2.8-7.3,4.1c-2.2,1.3-4.8,2.6-7.8,3.8l-4.6,2.2c-2.2,1.1-4.9,2.3-7.9,3.5
		c-3,1.2-6.1,2.1-9.1,2.6l-1.7,0.5l-4.6,0.7c-1.9,0.2-3.4,0.3-4.3,0.3h-1.2c-2.2,0-4.3-0.3-6.1-1c-1.8-0.6-3.1-1.3-3.7-2l-0.7-0.9
		c-0.3-0.6-0.6-1.2-0.8-1.8s-0.4-1.3-0.4-1.9c0-0.4,0-0.8,0.1-1.2c0.1-0.4,0.1-0.8,0.1-1.2l0.5-1.3c0.8-2.3,2-4.7,3.6-7.1
		c1.6-2.4,4.2-4.6,7.7-6.7l2.6-1.3c1.3-0.7,3.2-1.5,5.6-2.3c2.5-0.8,5.5-1.2,9-1.2h1.7c0.6,0,2.1,0.1,4.4,0.4
		c2.3,0.3,4.1,0.8,5.4,1.6l1.7,1.2l0.7,1.3c0.2,0.3,0.2,0.6,0.2,1c0,1.1-0.6,2.1-1.7,3.3c-1.1,1.1-1.7,1.8-1.7,2.1l-1,0.7l-1.4,1.3
		l-1.9,1.3c-1.1,0.7-2.2,1.4-3.4,2.1c-1.1,0.7-2.6,1.3-4.3,1.8l-3.8,1.1l-2.4,0.5c-0.6,0.1-1.2,0.1-1.7,0.2c-0.5,0.1-1,0.1-1.7,0.1
		h-2.2c-0.3,0-0.9,0-1.7-0.1c-0.8-0.1-1.2-0.2-1.2-0.2l-0.7,1.1L424.8,80.2z M430.3,74.7c0.2,0.1,0.2,0.2,0.2,0.3
		c0.8-0.3,2-0.8,3.6-1.5c1.6-0.8,2.4-1.7,2.4-2.7l0.2-0.3l0.7-1.9v-0.3l-0.5,0.3l-3.1,2.2L431,73l-1,0.8c0,0.2,0,0.3,0.1,0.5
		C430.3,74.4,430.3,74.6,430.3,74.7z"/>
	<path class="st0" d="M65.8,151.3l6.3-0.3c0.3-0.4,0.7-0.9,1.1-1.3c0.4-0.4,0.8-0.8,1.3-1.3l3.8-3.3l1.2-0.9c0.8-0.3,1.5-0.6,2-1
		c0.6-0.4,1.3-0.7,2.3-1L85,142c0.3-0.1,0.8-0.1,1.6-0.3c0.7-0.1,1.5-0.2,2.3-0.2h1.4c2.6,0,4.8,0.4,6.7,1.2
		c1.9,0.8,2.9,1.6,2.9,2.3c0,0.2,0,0.4-0.1,0.6c-0.1,0.2-0.1,0.3-0.1,0.5l-1.4,1.7l-1.7,1.6l118.3-7.4h1.4c2.7,0,5,0.3,6.9,1
		c1.8,0.6,2.8,1.4,2.8,2.4c0,0.8-0.8,1.5-2.3,2.1c-1.5,0.6-3.4,1-5.6,1.1L91,153.5c-0.2,0.1-0.3,0.2-0.5,0.3
		c-0.2,0.1-0.3,0.2-0.5,0.3l-3.4,2.3l-2.6,1.5c-0.3,0.3-0.6,0.7-1,1c-0.3,0.3-0.6,0.6-1,0.9l-6.3,6.2l-5.8,6.2c-0.5,0.5-1,1-1.6,1.5
		c-0.6,0.5-1,1-1.3,1.5l-2.6,3.2l-1.2,1.5c-1.3,1.5-2.6,3.2-3.8,5.1c-1.3,1.9-1.8,3.6-1.4,5c0,0.1,0,0.2,0.1,0.3
		c0.1,0.1,0.1,0.2,0.1,0.3v0.1l2.2-0.5l4.6-1.6l5.5-2.5l5.3-2.7l7.2-4.3l2.2-1.3c1.6-0.9,3-1.9,4.3-2.9c1.3-1,2.7-2,4.3-2.9l5.8-4.4
		l1.9-1.5c0.6-0.6,1.8-0.8,3.6-0.8c2.7,0,4.1,0.4,4.1,1.3c0,0.1,0,0.2-0.1,0.3c-0.1,0.1-0.1,0.2-0.1,0.3l-8.9,5.9l-13.7,8.8
		c-0.8,0.5-1.6,1-2.5,1.4c-0.9,0.4-1.6,0.9-2.3,1.4l-5.3,2.8c-1.1,0.6-2.4,1.2-3.7,1.9c-1.4,0.7-2.8,1.4-4.4,2
		c-1.6,0.6-3.3,1.1-5.2,1.6s-3.7,0.7-5.6,0.7h-0.7c-2.2,0-4.2-0.6-6-1.9l-0.2-0.5c-0.5-0.8-0.7-1.4-0.6-2c0.1-0.5,0.1-1.1,0.1-1.7
		c0.5-1.7,1-3.4,1.7-5.1c0.6-1.7,1.4-3.3,2.2-4.9l1.7-3.3c0.3-0.6,0.6-1.1,1-1.6c0.3-0.5,0.6-1.1,1-1.6l1.9-3.3
		c-0.6-0.3-1-0.6-1-1.1c-0.2-1.1,0.6-2.2,2.3-3.3c1.7-1.1,2.9-2.1,3.7-3.1l1.7-2.1l2.9-3.6l-1.9,0.1c-1.3,0-2.4-0.1-3.5-0.4
		c-1-0.3-1.6-0.7-1.6-1.2C61.9,152,63.2,151.5,65.8,151.3z"/>
	<path class="st0" d="M125.4,173.6l0.5,0.3c0.2,0,0.3,0,0.5,0c0.2,0,0.3,0,0.5,0c0.6,0,1.5-0.1,2.6-0.3l2.9-0.7
		c1.1-0.4,2.4-0.8,3.7-1.3c1.4-0.5,2.7-1.1,4-1.9l1.2-0.6c0.3-0.4,0.8-0.7,1.3-0.9c0.6-0.2,1.1-0.6,1.6-1.1l1.9-1.3
		c0.8-0.7,2.3-1.1,4.6-1.1c1.4,0,2.6,0.2,3.6,0.6c1,0.4,1.4,0.8,1.4,1.3c0,0.2-0.1,0.4-0.2,0.5l-0.7,0.3c-0.3,0.2-0.7,0.4-1.1,0.7
		c-0.4,0.2-0.8,0.4-1.3,0.7l-3.8,2l-3.8,1.9c-1.8,0.8-3.8,1.7-6.3,2.5l-1.9,0.6c-0.3,0.1-0.6,0.2-1,0.3c-0.3,0.1-0.7,0.2-1.2,0.3
		l-2.4,0.5c-0.8,0.1-1.8,0.2-2.9,0.3c-1.1,0.1-2.4,0.2-3.8,0.2c-0.8-0.1-1.7-0.1-2.8-0.2c-1-0.1-1.6-0.2-1.6-0.2
		c-1.3,0.9-2.6,1.7-4.1,2.3s-3,1.4-4.8,2.2l-3.4,1.1c-1,0.3-2.2,0.6-3.7,0.8c-1.5,0.3-3.2,0.4-4.9,0.4h-1c-2.6,0-5.1-0.4-7.6-1.1
		c-2.5-0.7-3.7-1.9-3.7-3.4c0-1,0.2-2,0.7-3l1.4-2.2l0.5-0.7l2.6-2.7l3.4-2.7c0.8-0.6,1.7-1.3,2.8-2.1c1-0.8,2.2-1.4,3.5-1.8
		l1.7-0.7c0.2-0.1,0.4-0.2,0.6-0.4s0.5-0.3,0.8-0.4l2.2-0.6c1.3-0.3,2.6-0.6,3.8-0.8c1.3-0.3,3.3-0.4,6-0.4c0.6,0,1.1,0,1.4,0.1h1.2
		c2.4,0.1,4.4,0.5,5.9,1.1c1.5,0.6,2.3,1.4,2.3,2.1v0.3l-0.2,0.4c0.3,0.3,0.5,0.7,0.6,1c0.1,0.3,0.1,0.6,0.1,0.9v0.9
		c0,0.3,0,0.6-0.1,0.8c-0.1,0.3-0.2,0.6-0.4,0.8l-1,1.5c-0.3,0.4-0.7,0.9-1.1,1.3c-0.4,0.4-0.8,0.8-1.3,1.3H125.4z M107.1,170.3
		c-1.4,0.7-2.7,1.4-3.8,2.1c-1.1,0.7-2.2,1.5-3.1,2.3l-1,1.2c-0.6,0.8-1.2,1.4-1.6,2c-0.4,0.5-0.5,1-0.4,1.5c0,0.3,0.1,0.6,0.2,0.8
		c0.2,0.3,0.3,0.4,0.5,0.4l1.7,0.1c0.2,0,1.1-0.2,2.9-0.6l2.2-0.8c0.3-0.2,0.6-0.4,1-0.4l2.6-1.5c0.8-0.6,1.6-1.3,2.4-1.9
		c0.8-0.7,1.4-1.3,1.7-2c-0.8-0.4-1.4-1-1.7-1.6c-0.3-0.6-0.5-1.2-0.5-1.7l-0.5-1.1c-0.5,0.2-1,0.4-1.4,0.6
		C107.8,169.9,107.4,170.1,107.1,170.3z"/>
	<path class="st0" d="M232.4,163.6l4.6-1.8l1.7-0.3c0.3,0,1-0.1,1.9-0.3c0.5-0.1,0.9-0.2,1.2-0.3l0.7-0.1h0.7l0.7-0.1h2.4l4.1,0.5
		l2.9,0.9c-0.2,0.1-0.2,0.1,0,0.1c0.2,0,0.2,0,0.2,0.1l1,0.5l0.2,0.2v0.1c0.6,0.4,1,0.9,1,1.4v0.6c0,1.2-0.4,2.1-1.2,2.9
		c-0.8,0.8-1.6,1.5-2.4,2.1l2.2-0.8c0.5-0.3,1.1-0.5,1.9-0.7l4.1-0.9l3.8-0.4h2.9c1.3,0,2.4,0.1,3.5,0.3c1,0.2,2,0.5,2.8,0.7
		c0.8,0.3,1.4,0.5,1.8,0.7c0.4,0.2,0.5,0.3,0.4,0.3l0.7,0.6c0.5,0.7,0.7,1.2,0.7,1.6c0,0.3-0.1,0.7-0.2,1c-0.2,0.4-0.4,0.7-0.7,0.9
		v0.1c0.8-0.5,1.8-1,2.9-1.5c1.1-0.5,2.1-1,2.9-1.5l3.8-2.3c1.1-0.7,2.2-1.4,3.2-2.2c1-0.8,2.6-1.2,4.7-1.2c1.4,0,2.6,0.2,3.5,0.5
		c0.9,0.3,1.3,0.7,1.3,1.2c0,0.3-0.1,0.6-0.2,0.7l-0.7,0.3l-2.4,1.1l-2.4,1.2c-0.8,0.3-1.6,0.7-2.3,1c-0.7,0.4-1.5,0.7-2.3,1.1
		l-9.1,4.6c-1.1,0.6-2.2,1.2-3.4,1.8c-1.1,0.6-2.4,1.1-3.8,1.5l-1.2,0.7l-2.2,0.8l-0.7,0.2c-0.2,0.1-0.3,0.1-0.5,0.1l-0.7,0.2
		c-0.2,0-0.3,0-0.5,0c-0.2,0-0.4,0-0.7,0h-1.4c-0.3,0-0.8,0-1.3-0.1c-0.6-0.1-0.8-0.2-0.8-0.3l-1.2-0.4c-0.5-0.2-0.8-0.4-0.8-0.6
		c-0.1-0.2-0.1-0.4-0.1-0.4v-0.8c0-0.2,0.1-0.4,0.2-0.4l0.5-2.2v-1.6l-0.7,0.1c-3.5,0.9-7.1,2-10.6,3.1c-3.5,1.1-6.6,2.2-9.1,3.5
		l-1.2,0.5c-0.3,0.2-0.7,0.4-1.2,0.7c-0.5,0.2-1,0.3-1.7,0.3c-1.8,0-2.6-0.3-2.6-0.8c0-0.3,0.2-0.6,0.5-0.8c0.3-0.3,0.6-0.6,0.7-0.8
		l1-1.3l1.4-2.8l1.2-2.8c0.3-0.4,0.5-0.9,0.5-1.4c0-0.5,0.1-0.9,0.2-1.4v-0.4l-3.8,1.5c-4.2,1.8-8.5,3.6-12.9,5.4
		c-4.4,1.8-8.1,3.8-10.9,5.9l-0.5,0.2l-3.1,2.1c0,0.3-0.4,0.6-1.3,0.8c-0.9,0.2-1.7,0.3-2.5,0.3c-1.3,0-2.2-0.1-2.9-0.4
		c-0.6-0.3-1-0.6-1-0.9c0-0.2,0.1-0.3,0.2-0.4l16.1-19.5c0.6-0.7,1.8-1.2,3.5-1.6c1.7-0.4,3.6-0.6,5.6-0.6c2.4,0,4.6,0.3,6.7,0.8
		L232.4,163.6z"/>
	<path class="st0" d="M301.6,167.8l-1.9,1.2l-2.6,1.8l-2.4,1.8c-1.6,1.2-3,2.4-4.1,3.6c-1.1,1.2-2.2,2.5-3.4,3.7l-0.5,0.6
		c0.3,0,0.5,0,0.5-0.1l4.6-1.9c0.5-0.2,0.9-0.3,1.3-0.5c0.4-0.2,0.8-0.3,1.1-0.5l4.6-2.2c2.7-1.3,5.5-2.7,8.3-4.2
		c2.8-1.5,5.6-3,8.3-4.6l3.8-2.3c1-0.6,1.9-1.2,2.8-2c0.9-0.8,2.2-1.1,4-1c1.1,0,2,0.2,2.8,0.5c0.7,0.3,1.1,0.6,1.1,1v0.3L311,183.6
		l7.5-3.7l7.5-3.5l7.5-3.4c1.3-0.6,2.7-1.4,4.3-2.2c1.6-0.9,3.2-1.7,4.9-2.5c1.7-0.8,3.2-1.5,4.7-2.1c1.4-0.6,2.7-0.9,3.8-0.9
		c1.3,0,2.3,0.2,3.1,0.5c0.8,0.4,1.2,0.7,1.2,1.1c-0.2,0.5-1,1.2-2.5,2.2c-1.5,0.9-2.9,1.7-4.2,2.3l-13.9,7.3
		c-10.9,5.3-20.3,10.8-28.2,16.4c-7.9,5.7-15,11.5-21.3,17.6l-13.9,15.6c0,0.1-0.2,0.3-0.5,0.7l-0.2,0.3c-0.8,0.7-2,1.2-3.6,1.6
		c-1.6,0.4-3.3,0.6-5,0.6c-2.9,0-5.2-0.3-7-1c-1.8-0.7-2.6-1.5-2.6-2.3c0-0.2,0-0.3,0.1-0.5c0.1-0.2,0.3-0.4,0.6-0.5h-0.2l0.7-0.7
		c2.6-2.7,5.2-5.3,7.9-7.9c2.7-2.6,5.6-5.2,8.7-7.7l40.1-37.4c-1.1,0.6-2.1,1.1-3,1.7c-0.9,0.6-1.8,1.1-2.8,1.6l-4.3,2.3l-4.8,2.2
		c-0.8,0.3-1.5,0.6-2.2,1s-1.6,0.8-2.9,1.1l-2.9,0.8l-2.2,0.3h-1c0,0.1-0.1,0.1-0.2,0.1h-1c-1.1-0.4-2-0.6-2.6-0.7
		c-0.6-0.1-1.1-0.1-1.3-0.1s-0.4,0-0.5,0c-0.1,0-0.1-0.1-0.1-0.3l-1-0.9c-0.2-0.2-0.2-0.5-0.2-0.9l0.5-2.3c0.2-1.3,0.6-2.6,1.4-4
		c0.8-1.4,1.6-2.7,2.4-4.1l1.2-2l0.7-1.3l0.7-1.4l0.5-0.8c0.3-0.8,1.4-1.4,3.1-1.9c1.8-0.5,3.8-0.7,6-0.7c2.6,0,4.7,0.3,6.4,1
		c1.7,0.6,2.5,1.4,2.5,2.1c0,0.3-0.2,0.6-0.5,0.9C302,167.3,301.7,167.6,301.6,167.8z"/>
	<path class="st0" d="M89.9,265.7l-0.2,0.1L89,266l-2.6,0.8l-1,0.5c-3.4,1.5-6.4,3.2-9,5c-2.6,1.8-4.8,3.6-6.6,5.4
		c-1.8,1.8-3.1,3.4-4,4.9c-0.9,1.5-1.3,2.8-1.3,3.8l0.2-0.1c0.2-0.1,0.6-0.2,1.2-0.5l1.2-0.5c1.9-0.8,3.8-1.8,5.6-3
		c1.8-1.2,3.6-2.4,5.3-3.7c1.7-1.3,3.2-2.5,4.6-3.7c1.4-1.2,2.4-2.3,3-3.2l0.7-0.8c0.5-0.2,0.7-0.4,0.7-0.7l1.2-1.1v-0.3
		c0.2-0.6,1.1-1.1,2.9-1.5c1.8-0.4,3.4-0.6,5-0.6c2.2,0,4.2,0.3,5.8,0.8c1.6,0.6,2.4,1.2,2.4,1.9c0,0.1,0,0.2-0.1,0.3
		c-0.1,0.1-0.1,0.2-0.1,0.3l-0.7,1.1l-1.2,0.7l-2.4,1.4l-2.9,1.6l-1.2,0.9c-3.5,2.4-6.4,4.9-8.7,7.4l-1.2,2.3
		c0.2-0.2,0.5-0.4,1.1-0.7c0.6-0.3,1.2-0.6,1.8-0.9c0.6-0.3,1.2-0.6,1.7-0.9c0.5-0.3,0.8-0.5,1-0.6c1.6-1.1,3.1-2.3,4.6-3.6
		c1.4-1.3,2.8-2.6,4.1-3.9l5-5.3l4.6-4.1l1.7-1.4c0.6-0.6,1.8-1,3.4-1.3c1.6-0.3,3.2-0.5,4.8-0.5c2.7,0,4.9,0.3,6.5,1
		c1.6,0.6,2.4,1.4,2.4,2.1c-0.5,0.8-0.8,1.3-1.1,1.5c-0.2,0.3-0.5,0.5-0.8,0.6l-1,0.5l-0.7,0.3c0,0.7-0.6,1.5-1.9,2.3
		c-1.3,0.8-1.9,1.3-1.9,1.6c0,0.2,0.2,0.3,0.7,0.3c0.6,0,1.5-0.2,2.5-0.5c1-0.3,2.1-0.7,3.1-1.1c1-0.4,2-0.8,3-1.3
		c1-0.4,1.7-0.8,2.2-1.2l1.4-0.9c0.8-0.6,1.4-1,1.9-1.5c0.5-0.4,1.6-0.6,3.4-0.5c1.3,0,2.4,0.1,3.2,0.4c0.9,0.3,1.3,0.6,1.3,1.1
		c0,0.2-0.1,0.4-0.4,0.6c-0.2,0.2-0.6,0.4-1.1,0.5l-4.8,1.8l-4.3,1.8c-3,1.1-5.6,1.9-7.8,2.5s-4.4,0.9-6.6,0.9
		c-1.4-0.2-2.5-0.4-3.1-0.6c-0.6-0.3-1.1-0.5-1.4-0.6l-11.5,7.4c-0.3,0.2-0.6,0.3-1,0.5c-0.3,0.2-0.6,0.4-1,0.6l-3.8,2.4
		c-0.8,0.4-1.6,0.9-2.5,1.3c-0.9,0.4-1.7,0.8-2.5,1.3l-3.1,0.9l-1.4,0.3c-0.6,0.1-1.3,0.2-1.9,0.2l-0.7,0.1l-0.5-0.1
		c-0.6,0-1.1,0-1.4-0.1l-1.2-0.2c-0.8-0.1-1.4-0.3-1.7-0.5c-0.3-0.2-0.6-0.4-0.7-0.5l-0.7-0.6c0-0.2,0-0.4-0.1-0.6
		c-0.1-0.2-0.1-0.4-0.1-0.6l-0.7,0.4l-4.3,1.9c-1.3,0.6-2.7,1.1-4.2,1.5c-1.5,0.5-2.9,0.7-4.2,0.6H63c-2.4,0-4.2-0.3-5.3-1
		c-1.1-0.7-1.9-1.2-2.4-1.6l-0.2-1c0-0.1,0-0.2-0.1-0.3c-0.1-0.1-0.1-0.2-0.1-0.3c0-1.8,0.6-3.6,1.8-5.6c1.2-2,2.7-3.9,4.6-5.8
		c1.8-1.9,3.8-3.7,5.9-5.4c2.1-1.7,4.1-3.1,6-4.3l2.4-1.6l2.9-1.3l0.7-0.3l0.2-0.2h0.2c1.6-0.6,3.5-0.8,5.8-0.8
		c2.2,0,4.2,0.3,5.8,0.8c1.6,0.5,2.4,1.2,2.4,2c0,0.4-0.3,0.9-1,1.3C91.9,265.1,91,265.5,89.9,265.7z"/>
	<path class="st0" d="M134.4,280.8c-0.2,0.4-0.3,0.9-0.5,1.2c-0.2,0.4-0.2,0.7-0.2,1.1c0,0.3,0.1,0.6,0.2,0.9
		c0.2,0.3,0.3,0.5,0.5,0.6l0.5,0.6c0.2,0,0.2,0,0.2,0.1h0.7c1.1,0,2.4-0.1,3.7-0.4c1.4-0.3,2.7-0.6,4.1-1c1.4-0.4,2.7-0.8,4-1.3
		c1.3-0.5,2.4-0.9,3.4-1.2l4.8-2c0.8-0.3,1.6-0.7,2.3-1c0.7-0.4,1.5-0.7,2.3-1l4.3-2.2c1.3-0.7,2.6-1.4,4-2.2c1.4-0.7,2.7-1.5,4-2.3
		l3.6-2.3l3.1-2l0.5-0.3c0.3-0.3,0.9-0.6,1.8-0.8c0.9-0.2,1.8-0.3,2.8-0.3c1.6,0,2.9,0.2,3.8,0.5c1,0.4,1.4,0.8,1.4,1.2
		c0,0.2-0.2,0.5-0.5,0.8L187,269l-4.3,2.3c-2.7,1.4-5.2,2.8-7.3,4.1c-2.2,1.3-4.8,2.6-7.8,3.8l-4.6,2.2c-2.2,1.1-4.9,2.3-7.9,3.5
		c-3,1.2-6.1,2.1-9.1,2.6l-1.7,0.5l-4.6,0.7c-1.9,0.2-3.4,0.3-4.3,0.3h-1.2c-2.2,0-4.3-0.3-6.1-1c-1.8-0.6-3.1-1.3-3.7-2l-0.7-0.9
		c-0.3-0.6-0.6-1.2-0.8-1.8c-0.2-0.6-0.4-1.3-0.4-1.9c0-0.4,0-0.8,0.1-1.2c0.1-0.4,0.1-0.8,0.1-1.2l0.5-1.3c0.8-2.3,2-4.7,3.6-7.1
		c1.6-2.4,4.2-4.6,7.7-6.7l2.6-1.3c1.3-0.7,3.2-1.5,5.6-2.3c2.5-0.8,5.5-1.2,9-1.2h1.7c0.6,0,2.1,0.1,4.4,0.4
		c2.3,0.3,4.1,0.8,5.4,1.6l1.7,1.2l0.7,1.3c0.2,0.3,0.2,0.6,0.2,1c0,1.1-0.6,2.1-1.7,3.3c-1.1,1.1-1.7,1.8-1.7,2.1l-1,0.7l-1.4,1.3
		l-1.9,1.3c-1.1,0.7-2.2,1.4-3.4,2.1c-1.1,0.7-2.6,1.3-4.3,1.8l-3.8,1.1l-2.4,0.5c-0.6,0.1-1.2,0.1-1.7,0.2c-0.5,0.1-1,0.1-1.7,0.1
		h-2.2c-0.3,0-0.9,0-1.7-0.1c-0.8-0.1-1.2-0.2-1.2-0.2l-0.7,1.1L134.4,280.8z M139.9,275.3c0.2,0.1,0.2,0.2,0.2,0.3
		c0.8-0.3,2-0.8,3.6-1.5c1.6-0.8,2.4-1.7,2.4-2.7l0.2-0.3l0.7-1.9v-0.3l-0.5,0.3l-3.1,2.2l-2.9,2.3l-1,0.8c0,0.2,0,0.3,0.1,0.5
		C139.9,275.1,139.9,275.2,139.9,275.3z"/>
	<path class="st0" d="M180.1,266.2l33.7-21.9c1.8-1.1,4.4-1.7,7.9-1.7c2.7,0,5,0.3,6.7,1c1.8,0.6,2.6,1.4,2.6,2.1
		c0,0.2-0.2,0.6-0.5,1l-1,1.1l-2.2,1.8c-0.6,0.4-1.2,0.9-1.6,1.3c-0.4,0.4-0.8,0.8-1.3,1.3l-5.8,5c-1.4,1.3-2.8,2.6-4.2,3.8
		c-1.4,1.3-2.7,2.6-4,3.8l3.4-1.3c0.8-0.3,1.9-0.5,3.4-0.8c1.4-0.3,2.8-0.4,4.1-0.4h0.2l0.2-0.1h1.2c1.3,0,2.7,0.1,4.2,0.4
		c1.5,0.3,2.5,0.5,3,0.9l1,0.3l1.4,1.1l0.5,0.8c0,0.4,0,0.9,0.1,1.3c0.1,0.4,0.1,0.8,0.1,1.2c-0.2,0.3-0.2,0.6-0.2,0.8
		c0,0.3-0.2,0.6-0.5,0.8l-0.2,0.8l7.7-2.8l5.5-2c1-0.3,2.2-0.5,3.6-0.5c1.3,0,2.3,0.2,3.1,0.5c0.8,0.3,1.2,0.7,1.2,1.1
		c0,0.3-0.4,0.7-1.2,1.1l-5.5,2.1l-5.5,2c-1.8,0.8-3.6,1.5-5.6,2.1c-2,0.6-4,1.3-5.9,2l-4.3,1.6c-1.3,0.8-2.6,1.6-4.1,2.3
		c-1.4,0.8-3,1.5-4.7,2.1c-1.7,0.6-3.6,1.1-5.8,1.5s-4.6,0.6-7.3,0.6v0.1c-1.6,0-3-0.2-4.2-0.5c-1.2-0.3-1.8-0.7-1.8-1.3v-0.3
		l-4.6,3.1l-1.7,1.3c-0.8,0.6-1.5,1.2-2,1.6c-0.6,0.5-1.7,0.7-3.5,0.7c-1.4,0-2.6-0.2-3.4-0.5c-0.8-0.3-1.2-0.7-1.2-1.2v-0.3
		c1.8-3.9,3.8-7.9,6.1-11.9c2.3-4,5.3-7.9,9-11.6L188,268c-1,0.4-2.2,0.7-3.8,0.7c-1.3,0-2.4-0.2-3.2-0.5c-0.9-0.3-1.3-0.7-1.3-1.2
		C179.6,266.8,179.7,266.5,180.1,266.2z M199.5,281.5c1.4-0.4,2.7-0.8,3.7-1.1c1-0.3,2-0.7,3-1.1c1-0.4,1.9-0.9,2.8-1.5
		c0.9-0.6,1.8-1.4,2.8-2.3l1.7-2c-2.9,1.4-5.5,2.7-7.8,4.1c-2.3,1.3-4.6,2.7-6.9,4.1L199.5,281.5z M224.8,268.2L224.8,268.2
		c0.2,0.1,0.2,0.1,0.2,0H224.8z"/>
	<path class="st0" d="M267.3,265.6h-0.2H267.3c-0.2-0.1-0.2-0.1-0.2-0.1c0,0-0.1,0-0.2,0c-1.4,0-2.8,0.2-4.2,0.5
		c-1.4,0.4-2.6,0.8-3.8,1.2c-1.2,0.4-2.4,0.9-3.5,1.4c-1.1,0.5-2,0.9-2.6,1.1c-1.9,1.3-3.6,2.5-5.2,3.4c-1.5,0.9-3.2,2.1-4.9,3.6
		l-1,1.3c-0.5,0.6-0.7,1.3-0.7,1.9c0,0.4,0.1,0.8,0.2,1c0.2,0.2,0.4,0.3,0.6,0.4c0.2,0.1,0.4,0.1,0.6,0l0.5,0.1h0.5
		c1.3-0.2,2.8-0.4,4.7-0.8c1.8-0.4,4-0.9,6.4-1.6l9.1-3.2c2.1-0.7,4-1.5,5.6-2.3c1.7-0.8,3.5-1.6,5.4-2.4l2.6-1.3l2.4-1.3l3.8-1.9
		l1-0.7c1-0.5,2.2-0.8,3.8-0.8c1.3,0,2.4,0.2,3.2,0.5c0.9,0.3,1.3,0.7,1.3,1.2c0,0.3-0.2,0.6-0.5,0.8l-1.7,0.8l-4.1,1.9
		c-1,0.3-1.9,0.8-2.9,1.3l-2.6,1.2c-1.9,0.8-3.8,1.7-5.6,2.5c-1.8,0.8-3.8,1.6-5.9,2.4l-6.3,2.3c-1.3,0.4-2.7,0.9-4.2,1.5
		c-1.5,0.5-3.1,1-4.8,1.5c-1.7,0.4-3.4,0.8-5.2,1.1s-3.4,0.5-5,0.5h-2.9c-3-0.3-5.5-0.8-7.5-1.5c-1.9-0.7-2.9-2-2.9-3.9
		c0-1.9,0.8-3.8,2.4-5.6c1.6-1.8,3.5-3.5,5.6-5.1c2.2-1.5,4.4-2.9,6.6-4c2.2-1.1,4.1-2,5.5-2.5c1.8-0.6,3.7-1.1,5.8-1.6
		c2.1-0.4,4.8-0.9,8.2-1.3l4.3-0.1c2.6-0.1,4.8,0.3,6.7,1c1.9,0.7,2.9,1.5,2.9,2.3c0,0.9-0.9,1.7-2.8,2.4c-1.8,0.6-4.1,1-6.9,1
		C268.5,265.7,267.8,265.7,267.3,265.6z"/>
	<path class="st0" d="M298.1,267.9l-0.7,0.5l-2.2,1.8c-0.8,0.9-1.7,1.7-2.6,2.5c-1,0.8-1.8,1.5-2.4,2.3l-2.2,2.4l-0.7,1.2
		c-0.5,0.4-0.8,0.9-1.1,1.3c-0.2,0.4-0.5,0.9-0.8,1.3l3.6-1.6l4.6-2l4.3-2.1l6.3-3.1l3.4-1.6l2.9-1.6l2.2-1.1
		c1.1-0.6,2.2-1.2,3.2-1.9c1-0.7,2.7-1,4.9-1c1.4,0,2.6,0.2,3.5,0.5c0.9,0.3,1.3,0.7,1.3,1.1c-0.2,0.6-0.9,1.2-2.3,1.7
		c-1.4,0.5-2.5,1-3.5,1.5l-6.5,3l-4.3,2.1l-10.8,5.2l-4.3,2.2l-4.6,2.1l-2.4,1.1l-1,0.3c-0.2,0-0.2,0-0.2,0c0,0-0.1,0-0.2,0
		l-0.5,0.2c-0.2,0-0.2,0-0.2,0c0,0-0.1,0-0.2,0l-0.5,0.1c-0.3,0.1-0.6,0.2-0.8,0.1c-0.2,0-0.4,0-0.6,0l-2.9-0.2
		c-0.8-0.1-1.4-0.2-1.7-0.3c-0.3-0.1-0.7-0.3-1.2-0.4l-0.5-0.3c-0.3-0.1-0.5-0.2-0.5-0.3c0-0.1-0.1-0.2-0.2-0.3l-0.5-0.5
		c0-0.4-0.1-0.8-0.2-1.2c-0.2-0.4-0.2-0.7-0.2-1.1l0.7-2.8l0.7-2.6l3.4-7.9l1-2.6V266c0.3-0.8,1.4-1.4,3.1-2
		c1.8-0.6,3.8-0.8,6.3-0.8c2.6,0,4.8,0.3,6.6,1c1.8,0.6,2.8,1.4,2.8,2.4C299.1,267,298.7,267.4,298.1,267.9z M290.7,252.8l0.7-2.8
		c0.3-0.9,1.4-1.6,3.2-2.2c1.8-0.6,3.9-0.8,6.1-0.8c2.7,0,5,0.3,6.9,1c1.8,0.7,2.8,1.4,2.8,2.3c0,0.3-0.1,0.5-0.2,0.8
		c-0.2,0.2-0.3,0.4-0.5,0.6l-3.6,2.7c-0.8,0.5-1.9,0.9-3.2,1.1c-1.4,0.3-2.8,0.4-4.2,0.4c-2.7,0-4.7-0.3-6-1
		C291.3,254.2,290.7,253.6,290.7,252.8z"/>
	<path class="st0" d="M324.1,251.6l6.3-0.3c0.3-0.4,0.7-0.9,1.1-1.3c0.4-0.4,0.8-0.8,1.3-1.3l3.8-3.3l1.2-0.9c0.8-0.3,1.5-0.6,2-1
		c0.6-0.4,1.3-0.7,2.3-1l1.2-0.3c0.3-0.1,0.8-0.1,1.6-0.3c0.7-0.1,1.5-0.2,2.3-0.2h1.4c2.6,0,4.8,0.4,6.7,1.2
		c1.9,0.8,2.9,1.6,2.9,2.3c0,0.2,0,0.4-0.1,0.6c-0.1,0.2-0.1,0.3-0.1,0.5l-1.4,1.7l-1.7,1.6l118.3-7.4h1.4c2.7,0,5,0.3,6.9,1
		c1.8,0.6,2.8,1.4,2.8,2.4c0,0.8-0.8,1.5-2.3,2.1c-1.5,0.6-3.4,1-5.6,1.1l-126.9,4.9c-0.2,0.1-0.3,0.2-0.5,0.3
		c-0.2,0.1-0.3,0.2-0.5,0.3l-3.4,2.3l-2.6,1.5c-0.3,0.3-0.6,0.7-1,1c-0.3,0.3-0.6,0.6-1,0.9l-6.3,6.2l-5.8,6.2c-0.5,0.5-1,1-1.6,1.5
		c-0.6,0.5-1,1-1.3,1.5l-2.6,3.2l-1.2,1.5c-1.3,1.5-2.6,3.2-3.8,5.1c-1.3,1.9-1.8,3.6-1.4,5c0,0.1,0,0.2,0.1,0.3
		c0.1,0.1,0.1,0.2,0.1,0.3v0.1l2.2-0.5l4.6-1.6l5.5-2.5l5.3-2.7l7.2-4.3l2.2-1.3c1.6-0.9,3-1.9,4.3-2.9c1.3-1,2.7-2,4.3-2.9l5.8-4.4
		l1.9-1.5c0.6-0.6,1.8-0.8,3.6-0.8c2.7,0,4.1,0.4,4.1,1.3c0,0.1,0,0.2-0.1,0.3c-0.1,0.1-0.1,0.2-0.1,0.3l-8.9,5.9l-13.7,8.8
		c-0.8,0.5-1.6,1-2.5,1.4c-0.9,0.4-1.6,0.9-2.3,1.4l-5.3,2.8c-1.1,0.6-2.4,1.2-3.7,1.9c-1.4,0.7-2.8,1.4-4.4,2
		c-1.6,0.6-3.3,1.1-5.2,1.6c-1.8,0.4-3.7,0.7-5.6,0.7h-0.7c-2.2,0-4.2-0.6-6-1.9l-0.2-0.5c-0.5-0.8-0.7-1.4-0.6-2
		c0.1-0.5,0.1-1.1,0.1-1.7c0.5-1.7,1-3.4,1.7-5.1c0.6-1.7,1.4-3.3,2.2-4.9l1.7-3.3c0.3-0.6,0.6-1.1,1-1.6c0.3-0.5,0.6-1.1,1-1.6
		l1.9-3.3c-0.6-0.3-1-0.6-1-1.1c-0.2-1.1,0.6-2.2,2.3-3.3c1.7-1.1,2.9-2.1,3.7-3.1l1.7-2.1l2.9-3.6l-1.9,0.1c-1.3,0-2.4-0.1-3.5-0.4
		c-1-0.3-1.6-0.7-1.6-1.2C320.2,252.3,321.5,251.8,324.1,251.6z"/>
	<path class="st0" d="M359.2,280.8c-0.2,0.4-0.3,0.9-0.5,1.2c-0.2,0.4-0.2,0.7-0.2,1.1c0,0.3,0.1,0.6,0.2,0.9
		c0.2,0.3,0.3,0.5,0.5,0.6l0.5,0.6c0.2,0,0.2,0,0.2,0.1h0.7c1.1,0,2.4-0.1,3.7-0.4c1.4-0.3,2.7-0.6,4.1-1c1.4-0.4,2.7-0.8,4-1.3
		c1.3-0.5,2.4-0.9,3.4-1.2l4.8-2c0.8-0.3,1.6-0.7,2.3-1c0.7-0.4,1.5-0.7,2.3-1l4.3-2.2c1.3-0.7,2.6-1.4,4-2.2c1.4-0.7,2.7-1.5,4-2.3
		l3.6-2.3l3.1-2l0.5-0.3c0.3-0.3,0.9-0.6,1.8-0.8c0.9-0.2,1.8-0.3,2.8-0.3c1.6,0,2.9,0.2,3.8,0.5c1,0.4,1.4,0.8,1.4,1.2
		c0,0.2-0.2,0.5-0.5,0.8l-2.2,1.3l-4.3,2.3c-2.7,1.4-5.2,2.8-7.3,4.1c-2.2,1.3-4.8,2.6-7.8,3.8l-4.6,2.2c-2.2,1.1-4.9,2.3-7.9,3.5
		c-3,1.2-6.1,2.1-9.1,2.6l-1.7,0.5l-4.6,0.7c-1.9,0.2-3.4,0.3-4.3,0.3h-1.2c-2.2,0-4.3-0.3-6.1-1c-1.8-0.6-3.1-1.3-3.7-2l-0.7-0.9
		c-0.3-0.6-0.6-1.2-0.8-1.8c-0.2-0.6-0.4-1.3-0.4-1.9c0-0.4,0-0.8,0.1-1.2c0.1-0.4,0.1-0.8,0.1-1.2l0.5-1.3c0.8-2.3,2-4.7,3.6-7.1
		c1.6-2.4,4.2-4.6,7.7-6.7l2.6-1.3c1.3-0.7,3.2-1.5,5.6-2.3c2.5-0.8,5.5-1.2,9-1.2h1.7c0.6,0,2.1,0.1,4.4,0.4
		c2.3,0.3,4.1,0.8,5.4,1.6l1.7,1.2l0.7,1.3c0.2,0.3,0.2,0.6,0.2,1c0,1.1-0.6,2.1-1.7,3.3c-1.1,1.1-1.7,1.8-1.7,2.1l-1,0.7l-1.4,1.3
		l-1.9,1.3c-1.1,0.7-2.2,1.4-3.4,2.1c-1.1,0.7-2.6,1.3-4.3,1.8l-3.8,1.1l-2.4,0.5c-0.6,0.1-1.2,0.1-1.7,0.2c-0.5,0.1-1,0.1-1.7,0.1
		h-2.2c-0.3,0-0.9,0-1.7-0.1c-0.8-0.1-1.2-0.2-1.2-0.2l-0.7,1.1L359.2,280.8z M364.7,275.3c0.2,0.1,0.2,0.2,0.2,0.3
		c0.8-0.3,2-0.8,3.6-1.5c1.6-0.8,2.4-1.7,2.4-2.7l0.2-0.3l0.7-1.9v-0.3l-0.5,0.3l-3.1,2.2l-2.9,2.3l-1,0.8c0,0.2,0,0.3,0.1,0.5
		C364.7,275.1,364.7,275.2,364.7,275.3z"/>
</g>
<g>
</g>
<g>
</g>
<g>
</g>
<g>
</g>
<g>
</g>
<g>
</g>
<g>
</g>
<g>
</g>
<g>
</g>
<g>
</g>
<g>
</g>
<g>
</g>
<g>
</g>
<g>
</g>
<g>
</g>
</svg>
